# AST/ASF file generated using VICON BodyLanguage
# -----------------------------------------------
:version 1.10
:name VICON
:units
  mass 1.0
  length 0.45
  angle deg
:documentation
   .ast/.asf automatically generated from VICON data using
   VICON BodyBuilder and BodyLanguage model FoxedUp or BRILLIANT.MOD
:root
   order TX TY TZ RX RY RZ
   axis XYZ
   position 0 0 0  
   orientation 0 0 0 
:bonedata
  begin
     id 1 
     name lhipjoint
     direction 0.646657 -0.683706 0.338203 
     length 2.4948 
     axis 0 0 0  XYZ
  end
  begin
     id 2 
     name lfemur
     direction 0.34202 -0.939693 0  
     length 6.79491  
     axis 0 0 20  XYZ
    dof rx ry rz
    limits (-160.0 20.0)
           (-70.0 70.0)
           (-60.0 70.0)
  end
  begin
     id 3 
     name ltibia
     direction 0.34202 -0.939693 0   
     length 7.56807   
     axis 0 0 20   XYZ
    dof rx
    limits (-10.0 170.0)
  end
  begin
     id 4 
     name lfoot
     direction 0.0679796 -0.186772 0.980048   
     length 2.53018   
     axis -90 7.62852e-016 20   XYZ
    dof rx rz
    limits (-45.0 90.0)
           (-70.0 20.0)
  end
  begin
     id 5 
     name ltoes
     direction 1.53625e-011 -4.21881e-011 1   
     length 1.26912   
     axis -90 7.62852e-016 20   XYZ
    dof rx
    limits (-90.0 20.0)
  end
  begin
     id 6 
     name rhipjoint
     direction -0.618868 -0.704065 0.348274   
     length 2.42265  
     axis 0 0 0  XYZ 
  end
  begin
     id 7 
     name rfemur
     direction -0.34202 -0.939693 0   
     length 6.73814   
     axis 0 0 -20   XYZ
    dof rx ry rz
    limits (-160.0 20.0)
           (-70.0 70.0)
           (-70.0 60.0)
  end
  begin
     id 8 
     name rtibia
     direction -0.34202 -0.939693 0   
     length 7.66799   
     axis 0 0 -20   XYZ
    dof rx
    limits (-10.0 170.0)
 end
 begin
     id 9 
     name rfoot
     direction -0.0727352 -0.199838 0.977125   
     length 2.57224  
     axis -90 -7.62852e-016 -20   XYZ
    dof rx rz
    limits (-45.0 90.0)
           (-20.0 70.0)
  end
  begin
     id 10 
     name rtoes
     direction -1.53501e-011 -4.21858e-011 1   
     length 1.28858   
     axis -90 -7.62852e-016 -20   XYZ
    dof rx
    limits (-90.0 20.0)
  end
  begin
     id 11 
     name lowerback
     direction -0.0172471 0.995767 -0.0902851   
     length 2.20206   
     axis 0 0 0   XYZ
    dof rx ry rz
    limits (-20.0 45.0)
           (-30.0 30.0)
           (-30.0 30.0)
  end
  begin
     id 12 
     name upperback
     direction -0.000110737 0.999714 0.0239043   
     length 2.19523   
     axis 0 0 0   XYZ
    dof rx ry rz
    limits (-20.0 45.0)
           (-30.0 30.0)
           (-30.0 30.0)
  end
  begin
     id 13 
     name thorax
     direction 0.00704869 0.997783 0.0661741   
     length 2.21977   
     axis 0 0 0   XYZ
    dof rx ry rz
    limits (-20.0 45.0)
           (-30.0 30.0)
           (-30.0 30.0)
  end
  begin
     id 14 
     name lowerneck
     direction -0.00407501 0.995527 0.0943846   
     length 1.83142   
     axis 0 0 0   XYZ
    dof rx ry rz
    limits (-20.0 45.0)
           (-30.0 30.0)
           (-30.0 30.0)
  end
  begin
     id 15 
     name upperneck
     direction 0.0640586 0.986486 -0.150807   
     length 1.84616   
     axis 0 0 0   XYZ
    dof rx ry rz
    limits (-20.0 45.0)
           (-30.0 30.0)
           (-30.0 30.0)
  end
  begin
     id 16
     name head
     direction 0.0188017 0.99791 -0.0618239  
     length 1.85932  
     axis 0 0 0   XYZ
    dof rx ry rz
    limits (-20.0 45.0)
           (-30.0 30.0)
           (-30.0 30.0)
  end
  begin
     id 17 
     name lclavicle
     direction 0.976074 0.206905 0.066852  
     length 3.81043  
     axis 0 0 0   XYZ
    dof ry rz
    limits (-20.0 10.0)
           (0.0 20.0)
  end
  begin
     id 18 
     name lhumerus
     direction 1 -4.48971e-011 1.86916e-027   
     length 5.37587   
     axis 180 -30 -90   XYZ
    dof rx ry rz
    limits (-60.0 90.0)
           (-90.0 90.0)
           (-90.0 90.0)
  end
  begin
     id 19
     name lradius
     direction 1 -4.48968e-011 1.69187e-027   
     length 3.35977   
     axis 180 -30 -90   XYZ
    dof rx
    limits (-10.0 170.0)
  end
  begin
     id 20
     name lwrist
     direction 1 -4.48968e-011 5.8978e-027   
     length 1.67988   
     axis -3.27506e-015 90 90   XYZ
    dof ry
    limits (-180.0 0.0)
 end
  begin
     id 21 
     name lhand
     direction 1 -4.49028e-011 1.18071e-026   
     length 0.561859   
     axis -7.52654e-015 90 90   XYZ
    dof rx rz
    limits (-90.0 90.0)
           (-45.0 45.0)
  end
  begin
     id 22 
     name lfingers
     direction 1 -4.48927e-011 2.35758e-026   
     length 0.452985   
     axis -1.50534e-014 90 90   XYZ
    dof rx
    limits (0.0 90.0)
  end
  begin
     id 23
     name lthumb
     direction 0.707107 -6.34898e-011 0.707107   
     length 0.650399   
     axis -90 45 5.69224e-014   XYZ
    dof rx rz
    limits (-45.0 45.0)
           (-45.0 45.0)
  end
  begin
     id 24 
     name rclavicle
     direction -0.988403 0.151789 0.00439714   
     length 3.6942  
     axis 0 0 0   XYZ 
    dof ry rz
    limits (-10.0 20.0)
           (-20.0 0.0)
  end
  begin
     id 25 
     name rhumerus
     direction -1 -4.48978e-011 1.62495e-027  
     length 5.22819   
     axis 180 30 90   XYZ
    dof rx ry rz
    limits (-90.0 60.0)
           (-90.0 90.0)
           (-90.0 90.0)
  end
  begin
     id 26 
     name rradius
     direction -1 -4.48961e-011 3.47796e-027   
     length 3.40764   
     axis 180 30 90   XYZ
    dof rx
    limits (-10.0 170.0)
  end
  begin
     id 27 
     name rwrist
     direction -1 -4.48949e-011 5.89602e-027   
     length 1.70382   
     axis -3.27506e-015 -90 -90   XYZ
    dof ry
    limits (-180.0 0.0)
  end
  begin
     id 28
     name rhand
     direction -1 -4.48977e-011 1.17973e-026   
     length 0.583255   
     axis -7.52654e-015 -90 -90   XYZ
    dof rx rz
    limits (-90.0 90.0)
           (-45.0 45.0)
  end
  begin
     id 29
     name rfingers
     direction -1 -4.49099e-011 2.36408e-026   
     length 0.470235   
     axis -1.50534e-014 -90 -90   XYZ
    dof rx
    limits (0.0 90.0)
  end
  begin
     id 30
     name rthumb
     direction -0.707107 -6.35011e-011 0.707107   
     length 0.675167   
     axis -90 -45 -5.69224e-014   XYZ
    dof rx rz
    limits (-45.0 45.0)
           (-45.0 45.0)
  end
:hierarchy
  begin
    root lhipjoint rhipjoint lowerback
    lhipjoint lfemur
    lfemur ltibia
    ltibia lfoot
    lfoot ltoes
    rhipjoint rfemur
    rfemur rtibia
    rtibia rfoot
    rfoot rtoes
    lowerback upperback
    upperback thorax
    thorax lowerneck lclavicle rclavicle
    lowerneck upperneck
    upperneck head
    lclavicle lhumerus
    lhumerus lradius
    lradius lwrist
    lwrist lhand lthumb
    lhand lfingers
    rclavicle rhumerus
    rhumerus rradius
    rradius rwrist
    rwrist rhand rthumb
    rhand rfingers
  end

#!OML:ASF G:\JayActor3\Patient Classification 1\Patient 1\Session 2\male.ASF
:FULLY-SPECIFIED
:DEGREES
486
root -39.613 16.472 -6.27061 -361.375 21.6902 354.413
lowerback 1.21927 1.05609 -3.27504
upperback 5.85528 1.54965 -0.924165
thorax 5.31797 0.653347 0.927407
lowerneck -7.99541 4.45593 4.53159
upperneck 22.3929 7.0105 -6.32696
head 8.66303 3.11033 -2.19023
rclavicle -2.38542e-015 2.38542e-014
rhumerus -28.4746 18.8337 -87.8669
rradius 42.0897
rwrist -2.69601
rhand -11.5462 3.85208
rfingers 7.12502
rthumb 14.4943 -25.6217
lclavicle -2.38542e-015 2.38542e-014
lhumerus -16.519 -18.5861 72.4843
lradius 24.8021
lwrist 19.7894
lhand -17.7472 24.3259
lfingers 7.12502
lthumb 8.51433 54.1343
rfemur -19.4999 -12.6319 19.8501
rtibia 69.72
rfoot -15.6501 -13.8964
rtoes 5.50866
lfemur -18.0496 14.3057 -29.3134
ltibia 28.6016
lfoot -18.813 20.8464
ltoes -3.29225
487
root -39.6388 16.4673 -6.18516 -361.406 23.1891 354.364
lowerback 1.28258 0.946225 -3.39564
upperback 5.8858 1.40622 -0.934408
thorax 5.31813 0.577364 0.978653
lowerneck -8.10244 4.358 4.47506
upperneck 22.3581 6.84959 -6.18803
head 8.65383 3.04328 -2.14818
rclavicle -1.35174e-014 3.18055e-015
rhumerus -29.0048 17.6794 -87.7871
rradius 41.1623
rwrist -2.56158
rhand -12.2111 3.87355
rfingers 7.12502
rthumb 13.8535 -25.6451
lclavicle -1.35174e-014 3.18055e-015
lhumerus -16.6176 -20.5499 73.7571
lradius 26.5068
lwrist 20.9568
lhand -17.4434 24.3647
lfingers 7.12502
lthumb 8.80747 54.161
rfemur -20.1025 -11.6519 19.7724
rtibia 68.8182
rfoot -16.8108 -13.8825
rtoes 3.16264
lfemur -17.9744 14.053 -29.13
ltibia 29.0224
lfoot -18.8632 19.836
ltoes -3.86187
488
root -39.6636 16.463 -6.10047 -361.438 24.7135 354.3
lowerback 1.36158 0.831957 -3.49201
upperback 5.91119 1.25544 -0.942556
thorax 5.30511 0.4991 1.01819
lowerneck -8.2132 4.25577 4.40204
upperneck 22.3278 6.68474 -6.04421
head 8.64624 2.97342 -2.10213
rclavicle 2.38542e-014 -2.8625e-014
rhumerus -29.5229 16.5352 -87.6964
rradius 40.1914
rwrist -2.41246
rhand -12.7937 3.89394
rfingers 7.12502
rthumb 13.2921 -25.6622
lclavicle 2.38542e-014 -2.8625e-014
lhumerus -16.7967 -22.5221 74.9846
lradius 28.37
lwrist 22.0836
lhand -17.1394 24.3763
lfingers 7.12502
lthumb 9.10086 54.1599
rfemur -20.6673 -10.6407 19.6856
rtibia 67.808
rfoot -17.9018 -13.8745
rtoes 1.36188
lfemur -17.9174 13.8748 -28.9306
ltibia 29.4325
lfoot -18.9216 18.7243
ltoes -4.48854
489
root -39.6877 16.4589 -6.0166 -361.467 26.2674 354.23
lowerback 1.4535 0.710903 -3.57354
upperback 5.93225 1.09456 -0.951404
thorax 5.28126 0.416791 1.04847
lowerneck -8.32282 4.14933 4.31014
upperneck 22.2946 6.51548 -5.89269
head 8.63673 2.9008 -2.05086
rclavicle 1.07344e-014 -2.06736e-014
rhumerus -30.0313 15.4281 -87.601
rradius 39.1899
rwrist -2.26486
rhand -13.28 3.91084
rfingers 7.12502
rthumb 12.8233 -25.6753
lclavicle 1.07344e-014 -2.06736e-014
lhumerus -17.0578 -24.4909 76.165
lradius 30.3871
lwrist 23.1535
lhand -16.8289 24.3512
lfingers 7.12502
lthumb 9.4004 54.1216
rfemur -21.2026 -9.60264 19.579
rtibia 66.7118
rfoot -18.906 -13.8754
rtoes 0.0501852
lfemur -17.8732 13.7487 -28.7265
ltibia 29.8199
lfoot -18.9858 17.536
ltoes -5.17934
490
root -39.7111 16.4552 -5.93341 -361.485 27.846 354.162
lowerback 1.5531 0.583787 -3.6496
upperback 5.94857 0.925022 -0.963028
thorax 5.24894 0.33073 1.07278
lowerneck -8.42599 4.03843 4.19959
upperneck 22.2528 6.34104 -5.73259
head 8.62232 2.82531 -1.99428
rclavicle 7.95139e-016 0
rhumerus -30.5343 14.3844 -87.509
rradius 38.17
rwrist -2.13682
rhand -13.6631 3.92295
rfingers 7.12502
rthumb 12.4539 -25.686
lclavicle 7.95139e-016 0
lhumerus -17.3982 -26.443 77.2971
lradius 32.5447
lwrist 24.1534
lhand -16.5119 24.2767
lfingers 7.12502
lthumb 9.70629 54.0331
rfemur -21.7176 -8.5303 19.4425
rtibia 65.5502
rfoot -19.8122 -13.8797
rtoes -0.868537
lfemur -17.8408 13.6531 -28.5266
ltibia 30.1793
lfoot -19.0601 16.2989
ltoes -5.91952
